<?xml version="1.0" encoding="utf-8"?>
<!-- Generator: Adobe Illustrator 23.1.0, SVG Export Plug-In . SVG Version: 6.00 Build 0)  -->
<svg version="1.1" id="Laag_1" xmlns="http://www.w3.org/2000/svg" xmlns:xlink="http://www.w3.org/1999/xlink" x="0px" y="0px"
	 viewBox="0 0 151.32 126.82" style="enable-background:new 0 0 151.32 126.82;" xml:space="preserve">
<style type="text/css">
	.st0{fill:#FFFFFF;stroke:#000000;stroke-miterlimit:10;}
	.st1{fill:none;stroke:#DDD;stroke-miterlimit:10;}
	.st2{fill:none;}
	.st3{font-family:'MyriadPro-Regular';}
	.st4{font-size:12px;}
</style>
<path class="st0" d="M211.67,26.87"/>
<path class="st0" d="M197.81,85.93"/>
<polyline class="st1" points="144.57,56.84 75.58,96.57 6.82,56.84 "/>
<polygon class="st1" points="10.47,64.62 10.47,80.68 75.58,118.76 75.58,102.53 "/>
<polyline class="st1" points="75.58,102.53 141.92,64.62 141.92,80.02 75.58,118.76 "/>
<polyline class="st1" points="90.27,26.32 90.27,17.1 82.67,13.3 82.67,8.95 76.41,5.23 69.9,8.87 75.7,12.91 82.67,8.95 "/>
<line class="st1" x1="75.58" y1="17.74" x2="75.7" y2="12.95"/>
<polyline class="st1" points="69.6,8.87 69.6,13.71 75.58,17.74 "/>
<line class="st1" x1="75.58" y1="17.74" x2="82.98" y2="13.46"/>
<polyline class="st1" points="69.6,13.71 62.84,17.04 69.56,21.63 76.03,25.63 89.98,17.5 "/>
<path class="st1" d="M72.5,19.93"/>
<polyline class="st1" points="62.11,16.95 62.11,36.53 73.56,30.61 84.96,37.69 73.37,44.73 61.78,36.99 61.78,66.89 73.07,73.65 
	85.71,66.63 "/>
<line class="st1" x1="76.03" y1="25.63" x2="76.03" y2="32.14"/>
<polyline class="st1" points="90.27,25.04 82.45,29.42 88.33,32.91 88.88,33.25 96.75,29.14 89.98,25.42 "/>
<polyline class="st1" points="97.16,38.82 97.16,29.04 144.57,56.84 144.57,63.02 141.92,64.62 "/>
<line class="st1" x1="88.41" y1="45.72" x2="88.88" y2="33.25"/>
<line class="st1" x1="82.45" y1="29.42" x2="82.45" y2="36.13"/>
<polygon class="st1" points="61.78,23.99 55.84,20.23 48.05,25.04 53.92,28.89 "/>
<line class="st1" x1="48.05" y1="42.19" x2="48.05" y2="25.04"/>
<line class="st1" x1="53.98" y1="38.82" x2="53.92" y2="28.89"/>
<line class="st1" x1="85.71" y1="38.04" x2="85.71" y2="66.63"/>
<line class="st1" x1="73.39" y1="45.3" x2="73.39" y2="73.02"/>
<polyline class="st1" points="86.28,46.59 90.88,43.97 100.9,50.42 89.98,56.84 86.28,53.87 "/>
<polyline class="st1" points="100.9,50.74 100.9,59.16 89.98,65.36 89.98,56.84 89.6,65.36 85.71,62.23 "/>
<polygon class="st1" points="95.79,38.36 99.18,40.53 95.79,42.19 92.98,40.27 "/>
<polygon class="st1" points="103.96,43.97 100.9,45.72 103.96,47.61 107.35,45.79 "/>
<polyline class="st1" points="99.18,40.53 99.18,46.91 95.78,47.12 95.79,42.19 "/>
<line class="st1" x1="92.98" y1="40.27" x2="92.98" y2="44.87"/>
<polyline class="st1" points="103.96,47.61 103.96,53.04 101.22,51.31 "/>
<line class="st1" x1="100.9" y1="45.72" x2="100.9" y2="50.42"/>
<polyline class="st1" points="107.35,45.79 107.35,51.82 104.12,53.36 "/>
<polyline class="st1" points="105.18,53.36 105.18,55.27 103.71,55.78 102.88,54.89 102.88,53.04 "/>
<polyline class="st1" points="108.11,48.63 116.41,53.8 74.92,77.61 "/>
<line class="st1" x1="124.33" y1="52.33" x2="127.96" y2="54.41"/>
<polyline class="st1" points="116.41,53.8 116.41,57.57 74.09,82.14 74.09,77.61 31.9,53.8 31.9,56.84 "/>
<line class="st1" x1="31.39" y1="57.38" x2="74.09" y2="82.14"/>
<polyline class="st1" points="41.16,44.55 38.47,46.83 41.92,48.63 44.47,46.83 40.96,43.97 "/>
<line class="st1" x1="38.47" y1="53.04" x2="38.47" y2="46.83"/>
<line class="st1" x1="41.47" y1="54.06" x2="38.47" y2="52.33"/>
<polyline class="st1" points="41.92,48.63 41.92,54.06 44.47,52.02 44.47,46.83 "/>
<polyline class="st1" points="43.2,53.8 43.2,56.48 40.45,56.48 40.45,54.06 "/>
<polyline class="st1" points="48.05,32.78 6.82,56.84 6.82,63.02 10.47,64.62 "/>
<polyline class="st1" points="56.03,38.04 45.22,44.36 56.03,50.74 61.39,47.61 "/>
<line class="st1" x1="56.37" y1="38.36" x2="61.78" y2="41.46"/>
<polyline class="st1" points="56.03,50.74 56.37,63.67 44.47,57.38 44.47,44.39 "/>
<line class="st1" x1="61.78" y1="61.21" x2="56.88" y2="63.67"/>
<path class="st1" d="M31.9,53.04c-0.13,0.34,6.09-3.1,6.09-3.1"/>
<line class="st1" x1="130.84" y1="56.84" x2="127.26" y2="58.65"/>
<line class="st1" x1="123.43" y1="61.21" x2="120.11" y2="63.02"/>
<line class="st1" x1="116.41" y1="64.62" x2="112.45" y2="66.63"/>
<line class="st1" x1="108.75" y1="68.95" x2="105.18" y2="70.91"/>
<line class="st1" x1="102.24" y1="73.02" x2="98.58" y2="74.74"/>
<line class="st1" x1="95.26" y1="77.12" x2="91.01" y2="79.16"/>
<line class="st1" x1="87.77" y1="81.04" x2="83.77" y2="83.25"/>
<line class="st1" x1="81.13" y1="84.87" x2="77.22" y2="87.42"/>
<line class="st1" x1="74.16" y1="88.44" x2="70.92" y2="86.14"/>
<line class="st1" x1="67.86" y1="84.87" x2="63.94" y2="82.14"/>
<line class="st1" x1="61.78" y1="81.04" x2="57.9" y2="79.16"/>
<line class="st1" x1="54.5" y1="77.12" x2="51.01" y2="75.25"/>
<line class="st1" x1="48.79" y1="73.88" x2="45.22" y2="71.84"/>
<line class="st1" x1="43.52" y1="70.91" x2="39.6" y2="68.95"/>
<line class="st1" x1="37.56" y1="67.5" x2="32.88" y2="64.62"/>
<line class="st1" x1="30.07" y1="63.02" x2="25.81" y2="60.53"/>
<line class="st1" x1="22.5" y1="59.16" x2="18.5" y2="56.48"/>
<line class="st1" x1="20.79" y1="54.41" x2="24.37" y2="51.84"/>
<line class="st1" x1="27.44" y1="49.93" x2="31.01" y2="48.07"/>
<line class="st1" x1="34.94" y1="46.3" x2="39.6" y2="43.83"/>
<line class="st1" x1="42.41" y1="41.46" x2="46.58" y2="39.48"/>
<line class="st1" x1="98.16" y1="37.38" x2="102.24" y2="39.91"/>
<line class="st1" x1="105.18" y1="41.04" x2="108.75" y2="43.16"/>
<line class="st1" x1="111.52" y1="45.06" x2="115.18" y2="47.12"/>
<line class="st1" x1="118.16" y1="49" x2="121.77" y2="51.16"/>
<rect x="39.4" y="76.46" transform="matrix(0.5 -0.866 0.866 0.5 -62.4997 92.6717)" class="st2" width="19.21" height="48.01"/>
<!--<text transform="matrix(0.866 0.5 -0.5 0.866 28.7973 87.5572)" class="st3 st4">PLAY</text>-->
<rect x="87.47" y="84.1" transform="matrix(0.866 -0.5 0.5 0.866 -31.4323 69.7575)" class="st2" width="53.97" height="18.87"/>
<!--<text transform="matrix(0.866 -0.5 0.5 0.866 90.66 106.2685)" class="st3 st4">GROUND</text>-->
</svg>
